<svg width="24" height="24" viewBox="0 0 24 24" fill="none" xmlns="http://www.w3.org/2000/svg">
<path d="M1.60616 10.4916L11.593 2.62664C11.8225 2.44653 12.1669 2.44653 12.3965 2.62664L22.3259 10.4916C22.8425 10.7917 23.4164 10.7917 23.8182 10.2514C24.1626 9.71107 23.9904 9.17073 23.5312 8.81051L12.5687 0.225141C12.2243 -0.0750469 11.7652 -0.0750469 11.3634 0.225141L0.400859 8.81051C-0.000909284 9.17073 -0.173096 9.83115 0.228672 10.3114C0.51565 10.7317 1.20439 10.8518 1.60616 10.4916Z" fill="#CB2127"/>
<path d="M11.995 4.00781L2.92651 11.1523V22.4994C2.92651 23.3399 3.55786 24.0003 4.3614 24.0003H9.58438V17.096H14.4056V24.0003H19.6286C20.4321 24.0003 21.0635 23.3399 21.0635 22.4994V11.1523L11.995 4.00781Z" fill="#CB2127"/>
</svg>
